<svg width="20" height="20" viewBox="0 0 109 109" fill="none" xmlns="http://www.w3.org/2000/svg">
    <path d="M108.845 83.486L108.845 10.6562C108.845 4.96819 104.235 0.357983 98.547 0.357984L25.7172 0.357987C20.0292 0.357987 15.419 4.96819 15.419 10.6562C15.419 16.3442 20.0292 20.9544 25.7172 20.9544L73.683 20.9544L3.8684 90.769C-0.155399 94.7928 -0.155399 101.311 3.8684 105.335C7.8922 109.359 14.4106 109.359 18.4346 105.335L88.2492 35.5206L88.2492 83.4864C88.249 86.3268 89.4 88.905 91.2644 90.7694C93.1288 92.6338 95.7034 93.7882 98.5474 93.7846C104.235 93.7846 108.846 89.1744 108.846 83.4864L108.845 83.486Z" fill="black"/>
</svg>
