<svg width="18" height="17" viewBox="0 0 18 17" fill="none" xmlns="http://www.w3.org/2000/svg">
    <path d="M17.0526 14.1667V15.1111C17.0526 16.15 16.2 17 15.1579 17H1.89474C0.843158 17 0 16.15 0 15.1111V1.88889C0 0.85 0.843158 0 1.89474 0H15.1579C16.2 0 17.0526 0.85 17.0526 1.88889V2.83333H8.52632C7.47474 2.83333 6.63158 3.68333 6.63158 4.72222V12.2778C6.63158 13.3167 7.47474 14.1667 8.52632 14.1667H17.0526ZM8.52632 12.2778H18V4.72222H8.52632V12.2778ZM12.3158 9.91667C11.5295 9.91667 10.8947 9.28389 10.8947 8.5C10.8947 7.71611 11.5295 7.08333 12.3158 7.08333C13.1021 7.08333 13.7368 7.71611 13.7368 8.5C13.7368 9.28389 13.1021 9.91667 12.3158 9.91667Z" fill="#EAEAEA"/>
</svg>
