<svg width="19" height="19" viewBox="0 0 19 19" fill="none" xmlns="http://www.w3.org/2000/svg">
    <path d="M16.3424 10.4008C16.3808 10.1133 16.3999 9.81625 16.3999 9.5C16.3999 9.19333 16.3808 8.88667 16.3329 8.59917L18.2783 7.085C18.4508 6.95083 18.4987 6.69208 18.3933 6.50042L16.5533 3.31875C16.4383 3.10792 16.1987 3.04083 15.9879 3.10792L13.6974 4.02792C13.2183 3.66375 12.7104 3.35708 12.1449 3.12708L11.7999 0.692916C11.7616 0.462916 11.5699 0.299999 11.3399 0.299999H7.65994C7.42994 0.299999 7.24786 0.462916 7.20952 0.692916L6.86452 3.12708C6.29911 3.35708 5.78161 3.67333 5.31203 4.02792L3.02161 3.10792C2.81078 3.03125 2.57119 3.10792 2.45619 3.31875L0.625776 6.50042C0.510776 6.70167 0.549109 6.95083 0.740776 7.085L2.68619 8.59917C2.63828 8.88667 2.59994 9.20292 2.59994 9.5C2.59994 9.79708 2.61911 10.1133 2.66703 10.4008L0.721609 11.915C0.549109 12.0492 0.501192 12.3079 0.606609 12.4996L2.44661 15.6812C2.56161 15.8921 2.80119 15.9592 3.01203 15.8921L5.30244 14.9721C5.78161 15.3362 6.28952 15.6429 6.85494 15.8729L7.19994 18.3071C7.24786 18.5371 7.42994 18.7 7.65994 18.7H11.3399C11.5699 18.7 11.7616 18.5371 11.7904 18.3071L12.1354 15.8729C12.7008 15.6429 13.2183 15.3362 13.6879 14.9721L15.9783 15.8921C16.1891 15.9687 16.4287 15.8921 16.5437 15.6812L18.3837 12.4996C18.4987 12.2887 18.4508 12.0492 18.2687 11.915L16.3424 10.4008ZM9.49994 12.95C7.60244 12.95 6.04994 11.3975 6.04994 9.5C6.04994 7.6025 7.60244 6.05 9.49994 6.05C11.3974 6.05 12.9499 7.6025 12.9499 9.5C12.9499 11.3975 11.3974 12.95 9.49994 12.95Z" fill="#EAEAEA"/>
</svg>
