<svg width="20" height="14" viewBox="0 0 20 14" fill="none" xmlns="http://www.w3.org/2000/svg">
    <path d="M16.6667 3.66668H14.1667V0.333344H2.50004C1.58337 0.333344 0.833374 1.08334 0.833374 2.00001V11.1667H2.50004C2.50004 12.55 3.61671 13.6667 5.00004 13.6667C6.38337 13.6667 7.50004 12.55 7.50004 11.1667H12.5C12.5 12.55 13.6167 13.6667 15 13.6667C16.3834 13.6667 17.5 12.55 17.5 11.1667H19.1667V7.00001L16.6667 3.66668ZM5.00004 12.4167C4.30837 12.4167 3.75004 11.8583 3.75004 11.1667C3.75004 10.475 4.30837 9.91668 5.00004 9.91668C5.69171 9.91668 6.25004 10.475 6.25004 11.1667C6.25004 11.8583 5.69171 12.4167 5.00004 12.4167ZM16.25 4.91668L17.8834 7.00001H14.1667V4.91668H16.25ZM15 12.4167C14.3084 12.4167 13.75 11.8583 13.75 11.1667C13.75 10.475 14.3084 9.91668 15 9.91668C15.6917 9.91668 16.25 10.475 16.25 11.1667C16.25 11.8583 15.6917 12.4167 15 12.4167Z" fill="#EAEAEA"/>
</svg>
